<svg width="25" height="28" viewBox="0 0 25 28" fill="none" xmlns="http://www.w3.org/2000/svg">
<path d="M8.12131 19.8338H15.8991V17.8893H8.12131V19.8338ZM8.12131 15.9449H15.8991V14.0004H8.12131V15.9449ZM6.17687 23.7227C5.64214 23.7227 5.18439 23.5323 4.8036 23.1515C4.42282 22.7707 4.23242 22.3129 4.23242 21.7782V6.22266C4.23242 5.68793 4.42282 5.23018 4.8036 4.84939C5.18439 4.46861 5.64214 4.27821 6.17687 4.27821H13.9546L19.788 10.1115V21.7782C19.788 22.3129 19.5976 22.7707 19.2168 23.1515C18.836 23.5323 18.3783 23.7227 17.8435 23.7227H6.17687ZM12.9824 11.0838V6.22266H6.17687V21.7782H17.8435V11.0838H12.9824ZM6.17687 6.22266V11.0838V21.7782V6.22266Z" fill="#6B7280"/>
</svg>
