<svg width="32" height="32" viewBox="0 0 32 32" fill="none" xmlns="http://www.w3.org/2000/svg">
<path d="M24.4849 29.3334C22.6595 29.3334 21.0696 26.5591 20.2425 22.4601C19.4154 26.5591 17.8255 29.3334 16.0001 29.3334C14.1746 29.3334 12.5847 26.5591 11.7577 22.4601C10.9305 26.5591 9.34068 29.3334 7.51521 29.3334C4.83749 29.3334 2.66675 23.3639 2.66675 16.0001C2.66675 8.63628 4.83749 2.66675 7.51521 2.66675C9.34068 2.66675 10.9305 5.44104 11.7577 9.54008C12.5847 5.44104 14.1746 2.66675 16.0001 2.66675C17.8255 2.66675 19.4154 5.44104 20.2425 9.54008C21.0696 5.44104 22.6595 2.66675 24.4849 2.66675C27.1627 2.66675 29.3334 8.63628 29.3334 16.0001C29.3334 23.3639 27.1627 29.3334 24.4849 29.3334Z" fill="#13A4EC"/>
</svg>

