<svg width="16" height="20" viewBox="0 0 16 20" fill="none" xmlns="http://www.w3.org/2000/svg">
<path d="M3.33333 16C2.96667 16 2.65278 15.8694 2.39167 15.6083C2.13056 15.3472 2 15.0333 2 14.6667V5.33333C2 4.96667 2.13056 4.65278 2.39167 4.39167C2.65278 4.13056 2.96667 4 3.33333 4H8V5.33333H3.33333V14.6667H12.6667V10H14V14.6667C14 15.0333 13.8694 15.3472 13.6083 15.6083C13.3472 15.8694 13.0333 16 12.6667 16H3.33333ZM6.46667 12.4667L5.53333 11.5333L11.7333 5.33333H9.33333V4H14V8.66667H12.6667V6.26667L6.46667 12.4667Z" fill="#0D1F29"/>
</svg>
