<svg width="36" height="44" viewBox="0 0 36 44" fill="none" xmlns="http://www.w3.org/2000/svg">
<path d="M18 37.75C16.2 36.05 14.1375 34.75 11.8125 33.85C9.4875 32.95 7.05 32.5 4.5 32.5V16C7.025 16 9.45 16.4562 11.775 17.3687C14.1 18.2812 16.175 19.6 18 21.325C19.825 19.6 21.9 18.2812 24.225 17.3687C26.55 16.4562 28.975 16 31.5 16V32.5C28.925 32.5 26.4813 32.95 24.1688 33.85C21.8563 34.75 19.8 36.05 18 37.75ZM18 33.85C19.575 32.675 21.25 31.7375 23.025 31.0375C24.8 30.3375 26.625 29.875 28.5 29.65V19.3C26.675 19.625 24.8813 20.2812 23.1188 21.2687C21.3563 22.2562 19.65 23.575 18 25.225C16.35 23.575 14.6438 22.2562 12.8813 21.2687C11.1188 20.2812 9.325 19.625 7.5 19.3V29.65C9.375 29.875 11.2 30.3375 12.975 31.0375C14.75 31.7375 16.425 32.675 18 33.85ZM18 17.5C16.35 17.5 14.9375 16.9125 13.7625 15.7375C12.5875 14.5625 12 13.15 12 11.5C12 9.85 12.5875 8.4375 13.7625 7.2625C14.9375 6.0875 16.35 5.5 18 5.5C19.65 5.5 21.0625 6.0875 22.2375 7.2625C23.4125 8.4375 24 9.85 24 11.5C24 13.15 23.4125 14.5625 22.2375 15.7375C21.0625 16.9125 19.65 17.5 18 17.5ZM18 14.5C18.825 14.5 19.5313 14.2062 20.1188 13.6187C20.7063 13.0312 21 12.325 21 11.5C21 10.675 20.7063 9.96875 20.1188 9.38125C19.5313 8.79375 18.825 8.5 18 8.5C17.175 8.5 16.4688 8.79375 15.8813 9.38125C15.2938 9.96875 15 10.675 15 11.5C15 12.325 15.2938 13.0312 15.8813 13.6187C16.4688 14.2062 17.175 14.5 18 14.5Z" fill="#13A4EC"/>
</svg>
