<svg width="28" height="28" viewBox="0 0 28 28" fill="none" xmlns="http://www.w3.org/2000/svg">
<path d="M12.8245 17.2725C13.9972 16.4918 14.8875 15.3544 15.3638 14.0285C15.8401 12.7026 15.8771 11.2587 15.4693 9.91015C15.0614 8.56164 14.2305 7.38016 13.0992 6.54044C11.968 5.70073 10.5966 5.24734 9.18774 5.24734C7.7789 5.24734 6.40747 5.70073 5.27624 6.54044C4.14501 7.38016 3.31404 8.56164 2.90621 9.91015C2.49839 11.2587 2.53536 12.7026 3.01166 14.0285C3.48796 15.3544 4.3783 16.4918 5.55102 17.2725C3.42968 18.0544 1.61801 19.5012 0.386331 21.397C0.321598 21.4932 0.276635 21.6014 0.254054 21.7151C0.231474 21.8288 0.231727 21.9459 0.254798 22.0596C0.27787 22.1732 0.323299 22.2811 0.388447 22.3771C0.453595 22.473 0.537161 22.555 0.634287 22.6184C0.731414 22.6817 0.840163 22.7251 0.954215 22.7461C1.06827 22.767 1.18535 22.7651 1.29865 22.7404C1.41195 22.7157 1.51921 22.6688 1.61419 22.6022C1.70918 22.5357 1.79 22.451 1.85196 22.353C2.64645 21.131 3.7336 20.1269 5.01468 19.4318C6.29577 18.7366 7.73021 18.3725 9.18774 18.3725C10.6453 18.3725 12.0797 18.7366 13.3608 19.4318C14.6419 20.1269 15.729 21.131 16.5235 22.353C16.6519 22.5437 16.8501 22.6763 17.0754 22.722C17.3007 22.7678 17.535 22.723 17.7275 22.5974C17.9201 22.4718 18.0555 22.2755 18.1044 22.0509C18.1534 21.8262 18.112 21.5914 17.9891 21.397C16.7575 19.5012 14.9458 18.0544 12.8245 17.2725ZM4.37524 11.8125C4.37524 10.8607 4.65749 9.93024 5.18629 9.13883C5.71509 8.34741 6.4667 7.73058 7.34607 7.36634C8.22544 7.00209 9.19308 6.90679 10.1266 7.09248C11.0601 7.27817 11.9176 7.73652 12.5907 8.40956C13.2637 9.0826 13.7221 9.9401 13.9078 10.8736C14.0935 11.8072 13.9982 12.7748 13.6339 13.6542C13.2697 14.5335 12.6528 15.2852 11.8614 15.814C11.07 16.3428 10.1396 16.625 9.18774 16.625C7.91183 16.6236 6.68859 16.1161 5.78638 15.2139C4.88418 14.3117 4.37668 13.0884 4.37524 11.8125ZM27.3593 22.6078C27.1649 22.7346 26.9282 22.7789 26.7011 22.7311C26.4741 22.6833 26.2753 22.5473 26.1485 22.353C25.355 21.1303 24.268 20.1257 22.9866 19.4309C21.7053 18.7361 20.2704 18.3731 18.8127 18.375C18.5807 18.375 18.3581 18.2828 18.194 18.1187C18.0299 17.9546 17.9377 17.7321 17.9377 17.5C17.9377 17.2679 18.0299 17.0454 18.194 16.8813C18.3581 16.7172 18.5807 16.625 18.8127 16.625C19.5215 16.6243 20.2213 16.4671 20.8622 16.1647C21.5031 15.8622 22.0693 15.4219 22.5204 14.8752C22.9714 14.3285 23.2961 13.689 23.4713 13.0023C23.6465 12.3155 23.6679 11.5986 23.5339 10.9027C23.3999 10.2067 23.1139 9.54898 22.6962 8.97641C22.2786 8.40384 21.7396 7.93058 21.1178 7.59045C20.4961 7.25032 19.8068 7.05172 19.0994 7.00883C18.392 6.96594 17.6839 7.07983 17.0256 7.34235C16.9182 7.38875 16.8027 7.41317 16.6857 7.41415C16.5688 7.41514 16.4529 7.39268 16.3448 7.3481C16.2367 7.30353 16.1386 7.23773 16.0564 7.15461C15.9741 7.07149 15.9094 6.97272 15.8659 6.86415C15.8225 6.75558 15.8013 6.63941 15.8035 6.5225C15.8057 6.40558 15.8314 6.29031 15.8789 6.18347C15.9265 6.07664 15.9949 5.98041 16.0803 5.90049C16.1656 5.82056 16.2661 5.75856 16.3759 5.71813C17.8825 5.11728 19.5582 5.09566 21.0798 5.65744C22.6014 6.21921 23.861 7.32458 24.6157 8.76031C25.3704 10.196 25.5667 11.8604 25.1667 13.4323C24.7666 15.0041 23.7986 16.3722 22.4495 17.2725C24.5708 18.0544 26.3825 19.5012 27.6141 21.397C27.7409 21.5914 27.7852 21.8281 27.7374 22.0552C27.6897 22.2823 27.5536 22.481 27.3593 22.6078Z" fill="#13A4EC"/>
</svg>
