<svg width="28" height="28" viewBox="0 0 28 28" fill="none" xmlns="http://www.w3.org/2000/svg">
<path d="M24.862 8.02485L19.9752 3.13688C19.8127 2.97434 19.6197 2.8454 19.4074 2.75743C19.195 2.66945 18.9674 2.62418 18.7376 2.62418C18.5077 2.62418 18.2801 2.66945 18.0678 2.75743C17.8555 2.8454 17.6625 2.97434 17.5 3.13688L4.01298 16.625C3.84977 16.7869 3.72037 16.9797 3.63231 17.192C3.54425 17.4044 3.49927 17.6321 3.50001 17.862V22.75C3.50001 23.2141 3.68438 23.6593 4.01257 23.9874C4.34076 24.3156 4.78588 24.5 5.25001 24.5H10.138C10.3679 24.5007 10.5956 24.4558 10.808 24.3677C11.0204 24.2796 11.2131 24.1502 11.375 23.987L24.862 10.5C25.0246 10.3375 25.1535 10.1446 25.2415 9.93222C25.3295 9.71987 25.3747 9.49227 25.3747 9.26243C25.3747 9.03258 25.3295 8.80498 25.2415 8.59264C25.1535 8.38029 25.0246 8.18736 24.862 8.02485ZM5.61204 17.5L14.875 8.23704L16.7005 10.0625L7.43751 19.3244L5.61204 17.5ZM5.25001 19.612L8.38798 22.75H5.25001V19.612ZM10.5 22.388L8.67454 20.5625L17.9375 11.2995L19.763 13.125L10.5 22.388ZM21 11.888L16.112 7.00001L18.737 4.37501L23.625 9.26188L21 11.888Z" fill="#13A4EC"/>
</svg>
