<svg width="25" height="28" viewBox="0 0 25 28" fill="none" xmlns="http://www.w3.org/2000/svg">
<path d="M12.0098 23.7222C10.9404 23.7222 9.90739 23.5561 8.91086 23.2239C7.91433 22.8917 7.00288 22.4097 6.17649 21.7777L7.58621 20.368C8.26676 20.8379 8.97973 21.1903 9.7251 21.4253C10.4705 21.6602 11.232 21.7777 12.0098 21.7777C14.1649 21.7777 16 21.0202 17.515 19.5052C19.0301 17.9901 19.7876 16.155 19.7876 13.9999C19.7876 11.8449 19.0301 10.0098 17.515 8.49474C16 6.97969 14.1649 6.22217 12.0098 6.22217C9.85473 6.22217 8.01966 6.97969 6.50461 8.49474C4.98957 10.0098 4.23204 11.8449 4.23204 13.9999H2.2876C2.2876 12.655 2.54281 11.3911 3.05322 10.2083C3.56364 9.02541 4.25635 7.99647 5.13135 7.12147C6.00635 6.24647 7.03528 5.55376 8.21815 5.04335C9.40102 4.53293 10.6649 4.27772 12.0098 4.27772C13.3547 4.27772 14.6146 4.53293 15.7893 5.04335C16.9641 5.55376 17.993 6.25052 18.8761 7.13363C19.7592 8.01673 20.456 9.04566 20.9664 10.2204C21.4768 11.3952 21.732 12.655 21.732 13.9999C21.732 15.3286 21.4768 16.5844 20.9664 17.7673C20.456 18.9502 19.7592 19.9832 18.8761 20.8663C17.993 21.7494 16.9641 22.4461 15.7893 22.9565C14.6146 23.467 13.3547 23.7222 12.0098 23.7222ZM4.20774 19.7604L8.16954 15.7986L11.0862 18.2291L15.8987 13.4166V15.9444H17.8432V10.1111H12.0098V12.0555H14.5376L10.989 15.6041L8.07232 13.1736L3.1869 18.059C3.36514 18.4317 3.52313 18.7355 3.66086 18.9704C3.79859 19.2054 3.98088 19.4687 4.20774 19.7604Z" fill="#F59E0B"/>
</svg>
