<svg width="16" height="20" viewBox="0 0 16 20" fill="none" xmlns="http://www.w3.org/2000/svg">
<path d="M3.33333 16.6665C2.96667 16.6665 2.65278 16.5359 2.39167 16.2748C2.13056 16.0137 2 15.6998 2 15.3332V5.99984C2 5.63317 2.13056 5.31928 2.39167 5.05817C2.65278 4.79706 2.96667 4.6665 3.33333 4.6665H4V3.33317H5.33333V4.6665H10.6667V3.33317H12V4.6665H12.6667C13.0333 4.6665 13.3472 4.79706 13.6083 5.05817C13.8694 5.31928 14 5.63317 14 5.99984V15.3332C14 15.6998 13.8694 16.0137 13.6083 16.2748C13.3472 16.5359 13.0333 16.6665 12.6667 16.6665H3.33333ZM3.33333 15.3332H12.6667V8.6665H3.33333V15.3332ZM3.33333 7.33317H12.6667V5.99984H3.33333V7.33317Z" fill="#0F172A"/>
</svg>
