<svg width="16" height="20" viewBox="0 0 16 20" fill="none" xmlns="http://www.w3.org/2000/svg">
<path d="M4.66667 13.3333V6.66667H11.3333V13.3333H4.66667ZM6 12H10V8H6V12ZM3.33333 14.6667V16C2.96667 16 2.65278 15.8694 2.39167 15.6083C2.13056 15.3472 2 15.0333 2 14.6667H3.33333ZM2 13.3333V12H3.33333V13.3333H2ZM2 10.6667V9.33333H3.33333V10.6667H2ZM2 8V6.66667H3.33333V8H2ZM3.33333 5.33333H2C2 4.96667 2.13056 4.65278 2.39167 4.39167C2.65278 4.13056 2.96667 4 3.33333 4V5.33333ZM4.66667 16V14.6667H6V16H4.66667ZM4.66667 5.33333V4H6V5.33333H4.66667ZM7.33333 16V14.6667H8.66667V16H7.33333ZM7.33333 5.33333V4H8.66667V5.33333H7.33333ZM10 16V14.6667H11.3333V16H10ZM10 5.33333V4H11.3333V5.33333H10ZM12.6667 16V14.6667H14C14 15.0333 13.8694 15.3472 13.6083 15.6083C13.3472 15.8694 13.0333 16 12.6667 16ZM12.6667 13.3333V12H14V13.3333H12.6667ZM12.6667 10.6667V9.33333H14V10.6667H12.6667ZM12.6667 8V6.66667H14V8H12.6667ZM12.6667 5.33333V4C13.0333 4 13.3472 4.13056 13.6083 4.39167C13.8694 4.65278 14 4.96667 14 5.33333H12.6667Z" fill="#0F172A"/>
</svg>
