<svg width="25" height="28" viewBox="0 0 25 28" fill="none" xmlns="http://www.w3.org/2000/svg">
<path d="M4.0376 21.0002V18.7884H5.90913V12.1772C5.90913 10.7837 6.32637 9.54009 7.16086 8.44634C7.99535 7.35259 9.07695 6.63558 10.4057 6.2953V5.66336C10.4057 5.22586 10.5636 4.85317 10.8796 4.5453C11.1956 4.23743 11.5723 4.0835 12.0098 4.0835C12.4473 4.0835 12.8241 4.23743 13.14 4.5453C13.456 4.85317 13.614 5.22586 13.614 5.66336V6.2953C14.9589 6.63558 16.0445 7.35259 16.8709 8.44634C17.6973 9.54009 18.1105 10.7837 18.1105 12.1772V18.7884H19.982V21.0002H4.0376ZM12.0098 23.9897C11.4589 23.9897 10.9849 23.7913 10.5879 23.3943C10.191 22.9973 9.99246 22.5233 9.99246 21.9724H14.0272C14.0272 22.5233 13.8287 22.9973 13.4317 23.3943C13.0347 23.7913 12.5607 23.9897 12.0098 23.9897ZM8.12093 18.7884H15.8987V12.1772C15.8987 11.1078 15.5179 10.1923 14.7563 9.43072C13.9948 8.66914 13.0793 8.28836 12.0098 8.28836C10.9404 8.28836 10.0249 8.66914 9.26329 9.43072C8.50172 10.1923 8.12093 11.1078 8.12093 12.1772V18.7884Z" fill="#F59E0B"/>
</svg>
