<svg width="25" height="28" viewBox="0 0 25 28" fill="none" xmlns="http://www.w3.org/2000/svg">
<path d="M10.6245 18.5936L17.5759 11.6422L16.0447 10.1109L10.6245 15.5554L7.9266 12.8332L6.41965 14.3644L10.6245 18.5936ZM12.0099 23.9165C10.6326 23.9165 9.34037 23.6572 8.13319 23.1387C6.92602 22.6202 5.87683 21.9153 4.98562 21.0241C4.09442 20.1329 3.38956 19.0837 2.87104 17.8766C2.35252 16.6694 2.09326 15.3772 2.09326 13.9998C2.09326 12.6225 2.35252 11.3303 2.87104 10.1231C3.38956 8.91593 4.09442 7.86674 4.98562 6.97553C5.87683 6.08433 6.92602 5.37947 8.13319 4.86095C9.34037 4.34243 10.6326 4.08317 12.0099 4.08317C13.3872 4.08317 14.6795 4.34243 15.8867 4.86095C17.0938 5.37947 18.143 6.08433 19.0342 6.97553C19.9254 7.86674 20.6303 8.91593 21.1488 10.1231C21.6673 11.3303 21.9266 12.6225 21.9266 13.9998C21.9266 15.3772 21.6673 16.6694 21.1488 17.8766C20.6303 19.0837 19.9254 20.1329 19.0342 21.0241C18.143 21.9153 17.0938 22.6202 15.8867 23.1387C14.6795 23.6572 13.3872 23.9165 12.0099 23.9165ZM12.0099 21.7047C14.165 21.7047 15.9879 20.9593 17.4787 19.4686C18.9694 17.9778 19.7148 16.1549 19.7148 13.9998C19.7148 11.8447 18.9694 10.0218 17.4787 8.53109C15.9879 7.04035 14.165 6.29498 12.0099 6.29498C9.85484 6.29498 8.03192 7.04035 6.54118 8.53109C5.05044 10.0218 4.30507 11.8447 4.30507 13.9998C4.30507 16.1549 5.05044 17.9778 6.54118 19.4686C8.03192 20.9593 9.85484 21.7047 12.0099 21.7047Z" fill="#10B981"/>
</svg>
