<svg width="25" height="28" viewBox="0 0 25 28" fill="none" xmlns="http://www.w3.org/2000/svg">
<path d="M6.1766 15.9443H13.9544V13.9998H6.1766V15.9443ZM6.1766 13.0276H17.8433V11.0832H6.1766V13.0276ZM6.1766 10.1109H17.8433V8.1665H6.1766V10.1109ZM2.09326 23.9165V6.29498C2.09326 5.67924 2.30796 5.15667 2.73736 4.72727C3.16676 4.29787 3.68933 4.08317 4.30507 4.08317H19.7148C20.3305 4.08317 20.8531 4.29787 21.2825 4.72727C21.7119 5.15667 21.9266 5.67924 21.9266 6.29498V17.8158C21.9266 18.4316 21.7119 18.9541 21.2825 19.3835C20.8531 19.8129 20.3305 20.0276 19.7148 20.0276H5.98215L2.09326 23.9165ZM5.15576 17.8158H19.7148V6.29498H4.30507V18.6422L5.15576 17.8158Z" fill="#3B82F6"/>
</svg>
